# xmcd CD database file
#
# Track frame offsets:
#	150
#	20138
#	40608
#	61856
#	80718
#	97699
#	114019
#	132510
#	150360
#	166620
#	182637
#
# Disc length: 2635 seconds
#
# Revision: 4
# Processed by: cddbd v1.5PL3 Copyright (c) Steve Scherf et al.
# Submitted via: CDex 1.51
#
DISCID=750a490b
DTITLE=Jimmy Thackery and the Drivers - Trouble Man
DYEAR=1994
DGENRE=Rock and Roll
TTITLE0=Doin' 100
TTITLE1=Trouble Man
TTITLE2=Bullfrog
TTITLE3=Mercury Blues
TTITLE4=You Came Back to Me
TTITLE5=Don't Lose Your Cool
TTITLE6=Wild Night Out
TTITLE7=Lovin' You Right
TTITLE8=She Needs Everything
TTITLE9=Anchor to a Drowning Man
TTITLE10=Hang Up and Drive
EXTD=YEAR: 1994
EXTT0=
EXTT1=
EXTT2=
EXTT3=
EXTT4=
EXTT5=
EXTT6=
EXTT7=
EXTT8=
EXTT9=
EXTT10=
PLAYORDER=
